<mxfile host="Electron" agent="Mozilla/5.0 (Macintosh; Intel Mac OS X 10_15_7) AppleWebKit/537.36 (KHTML, like Gecko) draw.io/24.7.8 Chrome/128.0.6613.36 Electron/32.0.1 Safari/537.36" version="24.7.8">
  <diagram name="Page-1" id="FBb4tL83SVQOLax5GY21">
    <mxGraphModel dx="954" dy="703" grid="1" gridSize="10" guides="1" tooltips="1" connect="1" arrows="1" fold="1" page="1" pageScale="1" pageWidth="827" pageHeight="1169" math="0" shadow="0">
      <root>
        <mxCell id="0" />
        <mxCell id="1" parent="0" />
        <mxCell id="LjH777WE9NxilNyu5DYm-12" style="edgeStyle=orthogonalEdgeStyle;rounded=0;orthogonalLoop=1;jettySize=auto;html=1;entryX=0.5;entryY=0;entryDx=0;entryDy=0;" edge="1" parent="1" source="LjH777WE9NxilNyu5DYm-1" target="LjH777WE9NxilNyu5DYm-2">
          <mxGeometry relative="1" as="geometry" />
        </mxCell>
        <mxCell id="LjH777WE9NxilNyu5DYm-13" style="edgeStyle=orthogonalEdgeStyle;rounded=0;orthogonalLoop=1;jettySize=auto;html=1;entryX=0.5;entryY=0;entryDx=0;entryDy=0;" edge="1" parent="1" source="LjH777WE9NxilNyu5DYm-1" target="LjH777WE9NxilNyu5DYm-3">
          <mxGeometry relative="1" as="geometry" />
        </mxCell>
        <mxCell id="LjH777WE9NxilNyu5DYm-14" style="edgeStyle=orthogonalEdgeStyle;rounded=0;orthogonalLoop=1;jettySize=auto;html=1;entryX=0.5;entryY=0;entryDx=0;entryDy=0;" edge="1" parent="1" source="LjH777WE9NxilNyu5DYm-1" target="LjH777WE9NxilNyu5DYm-4">
          <mxGeometry relative="1" as="geometry" />
        </mxCell>
        <mxCell id="LjH777WE9NxilNyu5DYm-15" style="edgeStyle=orthogonalEdgeStyle;rounded=0;orthogonalLoop=1;jettySize=auto;html=1;entryX=0.5;entryY=0;entryDx=0;entryDy=0;" edge="1" parent="1" source="LjH777WE9NxilNyu5DYm-1" target="LjH777WE9NxilNyu5DYm-5">
          <mxGeometry relative="1" as="geometry" />
        </mxCell>
        <mxCell id="LjH777WE9NxilNyu5DYm-16" style="edgeStyle=orthogonalEdgeStyle;rounded=0;orthogonalLoop=1;jettySize=auto;html=1;entryX=0.5;entryY=0;entryDx=0;entryDy=0;" edge="1" parent="1" source="LjH777WE9NxilNyu5DYm-1" target="LjH777WE9NxilNyu5DYm-6">
          <mxGeometry relative="1" as="geometry" />
        </mxCell>
        <mxCell id="LjH777WE9NxilNyu5DYm-1" value="OpenAI" style="rounded=1;whiteSpace=wrap;html=1;" vertex="1" parent="1">
          <mxGeometry x="320" y="30" width="120" height="60" as="geometry" />
        </mxCell>
        <mxCell id="LjH777WE9NxilNyu5DYm-17" style="edgeStyle=orthogonalEdgeStyle;rounded=0;orthogonalLoop=1;jettySize=auto;html=1;entryX=0.5;entryY=0;entryDx=0;entryDy=0;" edge="1" parent="1" source="LjH777WE9NxilNyu5DYm-2" target="LjH777WE9NxilNyu5DYm-7">
          <mxGeometry relative="1" as="geometry" />
        </mxCell>
        <mxCell id="LjH777WE9NxilNyu5DYm-2" value="Исследования" style="rounded=1;whiteSpace=wrap;html=1;" vertex="1" parent="1">
          <mxGeometry x="40" y="140" width="120" height="60" as="geometry" />
        </mxCell>
        <mxCell id="LjH777WE9NxilNyu5DYm-18" style="edgeStyle=orthogonalEdgeStyle;rounded=0;orthogonalLoop=1;jettySize=auto;html=1;entryX=0.5;entryY=0;entryDx=0;entryDy=0;" edge="1" parent="1" source="LjH777WE9NxilNyu5DYm-3" target="LjH777WE9NxilNyu5DYm-8">
          <mxGeometry relative="1" as="geometry" />
        </mxCell>
        <mxCell id="LjH777WE9NxilNyu5DYm-3" value="NLP" style="rounded=1;whiteSpace=wrap;html=1;" vertex="1" parent="1">
          <mxGeometry x="200" y="140" width="80" height="60" as="geometry" />
        </mxCell>
        <mxCell id="LjH777WE9NxilNyu5DYm-19" style="edgeStyle=orthogonalEdgeStyle;rounded=0;orthogonalLoop=1;jettySize=auto;html=1;entryX=0.5;entryY=0;entryDx=0;entryDy=0;" edge="1" parent="1" source="LjH777WE9NxilNyu5DYm-4" target="LjH777WE9NxilNyu5DYm-9">
          <mxGeometry relative="1" as="geometry" />
        </mxCell>
        <mxCell id="LjH777WE9NxilNyu5DYm-4" value="Безопасность" style="rounded=1;whiteSpace=wrap;html=1;" vertex="1" parent="1">
          <mxGeometry x="320" y="140" width="120" height="60" as="geometry" />
        </mxCell>
        <mxCell id="LjH777WE9NxilNyu5DYm-20" style="edgeStyle=orthogonalEdgeStyle;rounded=0;orthogonalLoop=1;jettySize=auto;html=1;entryX=0.5;entryY=0;entryDx=0;entryDy=0;" edge="1" parent="1" source="LjH777WE9NxilNyu5DYm-5" target="LjH777WE9NxilNyu5DYm-10">
          <mxGeometry relative="1" as="geometry" />
        </mxCell>
        <mxCell id="LjH777WE9NxilNyu5DYm-5" value="Обучение" style="rounded=1;whiteSpace=wrap;html=1;" vertex="1" parent="1">
          <mxGeometry x="470" y="140" width="120" height="60" as="geometry" />
        </mxCell>
        <mxCell id="LjH777WE9NxilNyu5DYm-21" style="edgeStyle=orthogonalEdgeStyle;rounded=0;orthogonalLoop=1;jettySize=auto;html=1;entryX=0.5;entryY=0;entryDx=0;entryDy=0;" edge="1" parent="1" source="LjH777WE9NxilNyu5DYm-6" target="LjH777WE9NxilNyu5DYm-11">
          <mxGeometry relative="1" as="geometry" />
        </mxCell>
        <mxCell id="LjH777WE9NxilNyu5DYm-6" value="Коммерция" style="rounded=1;whiteSpace=wrap;html=1;" vertex="1" parent="1">
          <mxGeometry x="630" y="140" width="120" height="60" as="geometry" />
        </mxCell>
        <mxCell id="LjH777WE9NxilNyu5DYm-7" value="Новые модели" style="rounded=0;whiteSpace=wrap;html=1;" vertex="1" parent="1">
          <mxGeometry x="45" y="240" width="110" height="50" as="geometry" />
        </mxCell>
        <mxCell id="LjH777WE9NxilNyu5DYm-8" value="Языковые&lt;div&gt;модели&lt;/div&gt;" style="rounded=0;whiteSpace=wrap;html=1;" vertex="1" parent="1">
          <mxGeometry x="185" y="240" width="110" height="50" as="geometry" />
        </mxCell>
        <mxCell id="LjH777WE9NxilNyu5DYm-9" value="Этические&lt;div&gt;исследования&lt;/div&gt;" style="rounded=0;whiteSpace=wrap;html=1;" vertex="1" parent="1">
          <mxGeometry x="325" y="240" width="110" height="50" as="geometry" />
        </mxCell>
        <mxCell id="LjH777WE9NxilNyu5DYm-10" value="Адаптивные&lt;div&gt;системы&lt;/div&gt;" style="rounded=0;whiteSpace=wrap;html=1;" vertex="1" parent="1">
          <mxGeometry x="475" y="240" width="110" height="50" as="geometry" />
        </mxCell>
        <mxCell id="LjH777WE9NxilNyu5DYm-11" value="API и продукты" style="rounded=0;whiteSpace=wrap;html=1;" vertex="1" parent="1">
          <mxGeometry x="635" y="240" width="110" height="50" as="geometry" />
        </mxCell>
      </root>
    </mxGraphModel>
  </diagram>
</mxfile>
